{"scene":0,"asset":{"generator":"ImageToStl.com","version":"2.0"},"scenes":[{"name":"Scene","nodes":[0]}],"nodes":[{"name":"Node0","children":[1]},{"name":"Node1","mesh":0}],"materials":[{"name":"main","pbrMetallicRoughness":{"baseColorFactor":[1.0,1.0,1.0,1.0],"metallicFactor":0.0,"roughnessFactor":1.0,"baseColorTexture":{"index":0}},"doubleSided":true}],"images":[{"bufferView":0,"name":"","mimeType":"image/jpeg"}],"textures":[{"sampler":0,"source":0}],"samplers":[{"magFilter":9729,"minFilter":9987}],"meshes":[{"name":"Mesh0","primitives":[{"indices":2,"material":0,"attributes":{"POSITION":0,"TEXCOORD_0":1}}]}],"accessors":[{"bufferView":1,"componentType":5126,"count":6298,"type":"VEC3","min":[-0.02092,0.00025,-0.03543],"max":[0.05014,0.02093,0.03016]},{"bufferView":2,"componentType":5126,"count":6298,"type":"VEC2"},{"bufferView":3,"componentType":5123,"count":103086,"type":"SCALAR"}],"bufferViews":[{"buffer":0,"byteLength":1977509,"byteOffset":0},{"target":34962,"buffer":0,"byteLength":75576,"byteOffset":1977512},{"target":34962,"buffer":0,"byteLength":50384,"byteOffset":2053088},{"target":34963,"buffer":0,"byteLength":206172,"byteOffset":2103472}],"buffers":[{"byteLength":2309644,"uri":"data:application/octet-stream;base64,"}]}