{"scene":0,"asset":{"generator":"ImageToStl.com","version":"2.0"},"scenes":[{"name":"Scene","nodes":[0]}],"nodes":[{"name":"Node0","children":[1]},{"name":"Node1","mesh":0}],"materials":[{"name":"main","pbrMetallicRoughness":{"baseColorFactor":[1.0,1.0,1.0,1.0],"metallicFactor":0.0,"roughnessFactor":1.0,"baseColorTexture":{"index":0}},"doubleSided":true}],"images":[{"bufferView":0,"name":"","mimeType":"image/jpeg"}],"textures":[{"sampler":0,"source":0}],"samplers":[{"magFilter":9729,"minFilter":9987}],"meshes":[{"name":"Mesh0","primitives":[{"indices":2,"material":0,"attributes":{"POSITION":0,"TEXCOORD_0":1}}]}],"accessors":[{"bufferView":1,"componentType":5126,"count":924,"type":"VEC3","min":[-0.0133,0.05573,0.01742],"max":[0.13509,0.08361,0.17348]},{"bufferView":2,"componentType":5126,"count":924,"type":"VEC2"},{"bufferView":3,"componentType":5123,"count":11799,"type":"SCALAR"}],"bufferViews":[{"buffer":0,"byteLength":2913775,"byteOffset":0},{"target":34962,"buffer":0,"byteLength":11088,"byteOffset":2913776},{"target":34962,"buffer":0,"byteLength":7392,"byteOffset":2924864},{"target":34963,"buffer":0,"byteLength":23598,"byteOffset":2932256}],"buffers":[{"byteLength":2955856,"uri":"data:application/octet-stream;base64,"}]}