{"scene":0,"asset":{"generator":"ImageToStl.com","version":"2.0"},"scenes":[{"name":"Scene","nodes":[0]}],"nodes":[{"name":"Node0","children":[1]},{"name":"Node1","mesh":0}],"materials":[{"name":"main","pbrMetallicRoughness":{"baseColorFactor":[1.0,1.0,1.0,1.0],"metallicFactor":0.0,"roughnessFactor":1.0,"baseColorTexture":{"index":0}},"doubleSided":true}],"images":[{"bufferView":0,"name":"","mimeType":"image/jpeg"}],"textures":[{"sampler":0,"source":0}],"samplers":[{"magFilter":9729,"minFilter":9987}],"meshes":[{"name":"Mesh0","primitives":[{"indices":2,"material":0,"attributes":{"POSITION":0,"TEXCOORD_0":1}}]}],"accessors":[{"bufferView":1,"componentType":5126,"count":5492,"type":"VEC3","min":[-0.03306,0.01778,-0.03421],"max":[0.00307,0.11085,-0.00162]},{"bufferView":2,"componentType":5126,"count":5492,"type":"VEC2"},{"bufferView":3,"componentType":5123,"count":87696,"type":"SCALAR"}],"bufferViews":[{"buffer":0,"byteLength":1612021,"byteOffset":0},{"target":34962,"buffer":0,"byteLength":65904,"byteOffset":1612024},{"target":34962,"buffer":0,"byteLength":43936,"byteOffset":1677928},{"target":34963,"buffer":0,"byteLength":175392,"byteOffset":1721864}],"buffers":[{"byteLength":1897256,"uri":"data:application/octet-stream;base64,"}]}