{"scene":0,"asset":{"generator":"ImageToStl.com","version":"2.0"},"scenes":[{"name":"Scene","nodes":[0]}],"nodes":[{"name":"Node0","children":[1]},{"name":"Node1","mesh":0}],"materials":[{"name":"main","pbrMetallicRoughness":{"baseColorFactor":[1.0,1.0,1.0,1.0],"metallicFactor":0.0,"roughnessFactor":1.0,"baseColorTexture":{"index":0}},"doubleSided":true}],"images":[{"bufferView":0,"name":"","mimeType":"image/jpeg"}],"textures":[{"sampler":0,"source":0}],"samplers":[{"magFilter":9729,"minFilter":9987}],"meshes":[{"name":"Mesh0","primitives":[{"indices":2,"material":0,"attributes":{"POSITION":0,"TEXCOORD_0":1}}]}],"accessors":[{"bufferView":1,"componentType":5126,"count":15048,"type":"VEC3","min":[-0.12285,-0.00284,-0.12766],"max":[0.12043,0.00985,0.03892]},{"bufferView":2,"componentType":5126,"count":15048,"type":"VEC2"},{"bufferView":3,"componentType":5123,"count":254565,"type":"SCALAR"}],"bufferViews":[{"buffer":0,"byteLength":1067501,"byteOffset":0},{"target":34962,"buffer":0,"byteLength":180576,"byteOffset":1067504},{"target":34962,"buffer":0,"byteLength":120384,"byteOffset":1248080},{"target":34963,"buffer":0,"byteLength":509130,"byteOffset":1368464}],"buffers":[{"byteLength":1877596,"uri":"data:application/octet-stream;base64,"}]}