{"scene":0,"asset":{"generator":"ImageToStl.com","version":"2.0"},"scenes":[{"name":"Scene","nodes":[0]}],"nodes":[{"name":"Node0","children":[1]},{"name":"Node1","mesh":0}],"materials":[{"name":"main","pbrMetallicRoughness":{"baseColorFactor":[1.0,1.0,1.0,1.0],"metallicFactor":0.0,"roughnessFactor":1.0,"baseColorTexture":{"index":0}},"doubleSided":true}],"images":[{"bufferView":0,"name":"","mimeType":"image/jpeg"}],"textures":[{"sampler":0,"source":0}],"samplers":[{"magFilter":9729,"minFilter":9987}],"meshes":[{"name":"Mesh0","primitives":[{"indices":2,"material":0,"attributes":{"POSITION":0,"TEXCOORD_0":1}}]}],"accessors":[{"bufferView":1,"componentType":5126,"count":5338,"type":"VEC3","min":[0.07847,0.05139,0.06274],"max":[0.14636,0.07447,0.11616]},{"bufferView":2,"componentType":5126,"count":5338,"type":"VEC2"},{"bufferView":3,"componentType":5123,"count":82899,"type":"SCALAR"}],"bufferViews":[{"buffer":0,"byteLength":1391312,"byteOffset":0},{"target":34962,"buffer":0,"byteLength":64056,"byteOffset":1391312},{"target":34962,"buffer":0,"byteLength":42704,"byteOffset":1455368},{"target":34963,"buffer":0,"byteLength":165798,"byteOffset":1498072}],"buffers":[{"byteLength":1663872,"uri":"data:application/octet-stream;base64,"}]}