{"scene":0,"asset":{"generator":"ImageToStl.com","version":"2.0"},"scenes":[{"name":"Scene","nodes":[0]}],"nodes":[{"name":"Node0","children":[1]},{"name":"Node1","mesh":0}],"materials":[{"name":"main","pbrMetallicRoughness":{"baseColorFactor":[1.0,1.0,1.0,1.0],"metallicFactor":0.0,"roughnessFactor":1.0,"baseColorTexture":{"index":0}},"doubleSided":true}],"images":[{"bufferView":0,"name":"","mimeType":"image/jpeg"}],"textures":[{"sampler":0,"source":0}],"samplers":[{"magFilter":9729,"minFilter":9987}],"meshes":[{"name":"Mesh0","primitives":[{"indices":2,"material":0,"attributes":{"POSITION":0,"TEXCOORD_0":1}}]}],"accessors":[{"bufferView":1,"componentType":5126,"count":6926,"type":"VEC3","min":[0.03974,0.05152,0.02457],"max":[0.09672,0.08778,0.09015]},{"bufferView":2,"componentType":5126,"count":6926,"type":"VEC2"},{"bufferView":3,"componentType":5123,"count":105597,"type":"SCALAR"}],"bufferViews":[{"buffer":0,"byteLength":1765235,"byteOffset":0},{"target":34962,"buffer":0,"byteLength":83112,"byteOffset":1765236},{"target":34962,"buffer":0,"byteLength":55408,"byteOffset":1848348},{"target":34963,"buffer":0,"byteLength":211194,"byteOffset":1903756}],"buffers":[{"byteLength":2114952,"uri":"data:application/octet-stream;base64,"}]}